<?xml version="1.0" encoding="UTF-8"?>
<svg xmlns="http://www.w3.org/2000/svg" xmlns:xlink="http://www.w3.org/1999/xlink" width="39pt" height="39pt" viewBox="0 0 39 39" version="1.1">
<defs>
<linearGradient id="linear0" gradientUnits="userSpaceOnUse" x1="256" y1="398.791" x2="256" y2="120" gradientTransform="matrix(0.0761719,0,0,0.0761719,0,0)">
<stop offset="0" style="stop-color:rgb(7.058824%,75.294118%,90.588235%);stop-opacity:1;"/>
<stop offset="0.5" style="stop-color:rgb(76.078431%,44.313725%,92.156863%);stop-opacity:1;"/>
<stop offset="1" style="stop-color:rgb(95.686275%,30.980392%,35.294118%);stop-opacity:1;"/>
</linearGradient>
</defs>
<g id="surface1">
<path style=" stroke:none;fill-rule:nonzero;fill:url(#linear0);" d="M 32.1875 15.371094 C 31.671875 12.8125 29.421875 10.972656 26.8125 10.96875 L 26.203125 10.96875 C 26.203125 9.960938 25.382812 9.140625 24.375 9.140625 L 14.625 9.140625 C 13.617188 9.140625 12.796875 9.960938 12.796875 10.96875 L 12.1875 10.96875 C 9.578125 10.972656 7.328125 12.8125 6.8125 15.371094 C 6.273438 15.578125 5.191406 16.101562 4.125 17.246094 C 1.722656 19.820312 1.21875 23.539062 1.21875 26.203125 C 1.21875 29 1.476562 30.039062 2.238281 30.316406 C 2.34375 30.355469 2.460938 30.375 2.574219 30.375 C 3.261719 30.375 3.90625 29.613281 4.8125 28.53125 C 5.859375 27.28125 7.261719 25.609375 8.851562 25.125 L 8.929688 25.429688 C 9.132812 26.242188 9.863281 26.8125 10.703125 26.8125 L 14.484375 26.8125 C 14.828125 27.199219 15.324219 27.421875 15.84375 27.421875 L 23.15625 27.421875 C 23.675781 27.421875 24.171875 27.199219 24.515625 26.8125 L 28.296875 26.8125 C 29.136719 26.8125 29.871094 26.242188 30.070312 25.429688 L 30.148438 25.125 C 31.738281 25.609375 33.140625 27.28125 34.1875 28.53125 C 35.09375 29.613281 35.738281 30.375 36.425781 30.375 C 36.539062 30.375 36.65625 30.355469 36.761719 30.316406 C 37.523438 30.039062 37.78125 29 37.78125 26.203125 C 37.78125 23.539062 37.277344 19.820312 34.875 17.246094 C 33.808594 16.101562 32.726562 15.578125 32.1875 15.371094 Z M 3.878906 27.746094 C 3.484375 28.21875 2.96875 28.832031 2.667969 29.066406 C 2.570312 28.785156 2.4375 28.0625 2.4375 26.203125 C 2.4375 22.734375 3.308594 19.945312 4.960938 18.136719 C 5.472656 17.570312 6.082031 17.09375 6.753906 16.734375 L 8.554688 23.941406 C 6.59375 24.511719 5.039062 26.363281 3.878906 27.746094 Z M 10.703125 25.59375 C 10.421875 25.59375 10.179688 25.402344 10.109375 25.132812 L 7.921875 16.378906 C 7.964844 14.054688 9.859375 12.191406 12.1875 12.1875 L 12.894531 12.1875 L 14.011719 25.59375 Z M 23.769531 25.542969 C 23.765625 25.558594 23.765625 25.578125 23.765625 25.59375 C 23.765625 25.929688 23.492188 26.203125 23.15625 26.203125 L 15.84375 26.203125 C 15.507812 26.203125 15.234375 25.929688 15.234375 25.59375 C 15.234375 25.578125 15.234375 25.558594 15.230469 25.542969 L 14.015625 10.949219 C 14.027344 10.621094 14.296875 10.359375 14.625 10.359375 L 24.375 10.359375 C 24.703125 10.359375 24.972656 10.621094 24.984375 10.949219 Z M 28.890625 25.132812 C 28.820312 25.402344 28.578125 25.59375 28.296875 25.59375 L 24.988281 25.59375 L 26.105469 12.1875 L 26.8125 12.1875 C 29.140625 12.191406 31.035156 14.054688 31.078125 16.378906 Z M 36.335938 29.066406 C 36.035156 28.832031 35.515625 28.21875 35.121094 27.746094 C 33.960938 26.363281 32.40625 24.511719 30.445312 23.941406 L 32.246094 16.734375 C 32.917969 17.09375 33.527344 17.570312 34.039062 18.136719 C 35.691406 19.945312 36.5625 22.734375 36.5625 26.203125 C 36.5625 28.0625 36.429688 28.785156 36.335938 29.066406 Z M 36.335938 29.066406 "/>
</g>
</svg>
